%TF.GenerationSoftware,KiCad,Pcbnew,10.0.0*%
%TF.CreationDate,2026-05-13T16:27:57-07:00*%
%TF.ProjectId,Devbored RP2040,44657662-6f72-4656-9420-525032303430,rev?*%
%TF.SameCoordinates,Original*%
%TF.FileFunction,Drillmap*%
%TF.FilePolarity,Positive*%
%FSLAX45Y45*%
G04 Gerber Fmt 4.5, Leading zero omitted, Abs format (unit mm)*
G04 Created by KiCad (PCBNEW 10.0.0) date 2026-05-13 16:27:57*
%MOMM*%
%LPD*%
G01*
G04 APERTURE LIST*
%ADD10C,0.050000*%
%ADD11C,0.200000*%
%ADD12C,0.100000*%
G04 APERTURE END LIST*
D10*
X14225855Y-4516638D02*
X16425598Y-4516638D01*
X16425598Y-9991741D01*
X14225855Y-9991741D01*
X14225855Y-4516638D01*
D11*
D12*
X14996500Y-5140259D02*
X15061500Y-5205259D01*
X15061500Y-5140259D02*
X14996500Y-5205259D01*
X15574500Y-5140259D02*
X15639500Y-5205259D01*
X15639500Y-5140259D02*
X15574500Y-5205259D01*
D11*
X14484132Y-10305725D02*
X14484132Y-10105725D01*
X14484132Y-10105725D02*
X14531751Y-10105725D01*
X14531751Y-10105725D02*
X14560322Y-10115249D01*
X14560322Y-10115249D02*
X14579370Y-10134297D01*
X14579370Y-10134297D02*
X14588894Y-10153344D01*
X14588894Y-10153344D02*
X14598418Y-10191439D01*
X14598418Y-10191439D02*
X14598418Y-10220011D01*
X14598418Y-10220011D02*
X14588894Y-10258106D01*
X14588894Y-10258106D02*
X14579370Y-10277154D01*
X14579370Y-10277154D02*
X14560322Y-10296201D01*
X14560322Y-10296201D02*
X14531751Y-10305725D01*
X14531751Y-10305725D02*
X14484132Y-10305725D01*
X14684132Y-10305725D02*
X14684132Y-10172392D01*
X14684132Y-10210487D02*
X14693656Y-10191439D01*
X14693656Y-10191439D02*
X14703179Y-10181916D01*
X14703179Y-10181916D02*
X14722227Y-10172392D01*
X14722227Y-10172392D02*
X14741275Y-10172392D01*
X14807941Y-10305725D02*
X14807941Y-10172392D01*
X14807941Y-10105725D02*
X14798418Y-10115249D01*
X14798418Y-10115249D02*
X14807941Y-10124773D01*
X14807941Y-10124773D02*
X14817465Y-10115249D01*
X14817465Y-10115249D02*
X14807941Y-10105725D01*
X14807941Y-10105725D02*
X14807941Y-10124773D01*
X14931751Y-10305725D02*
X14912703Y-10296201D01*
X14912703Y-10296201D02*
X14903179Y-10277154D01*
X14903179Y-10277154D02*
X14903179Y-10105725D01*
X15036513Y-10305725D02*
X15017465Y-10296201D01*
X15017465Y-10296201D02*
X15007941Y-10277154D01*
X15007941Y-10277154D02*
X15007941Y-10105725D01*
X15265084Y-10305725D02*
X15265084Y-10105725D01*
X15265084Y-10105725D02*
X15331751Y-10248582D01*
X15331751Y-10248582D02*
X15398418Y-10105725D01*
X15398418Y-10105725D02*
X15398418Y-10305725D01*
X15579370Y-10305725D02*
X15579370Y-10200963D01*
X15579370Y-10200963D02*
X15569846Y-10181916D01*
X15569846Y-10181916D02*
X15550799Y-10172392D01*
X15550799Y-10172392D02*
X15512703Y-10172392D01*
X15512703Y-10172392D02*
X15493656Y-10181916D01*
X15579370Y-10296201D02*
X15560322Y-10305725D01*
X15560322Y-10305725D02*
X15512703Y-10305725D01*
X15512703Y-10305725D02*
X15493656Y-10296201D01*
X15493656Y-10296201D02*
X15484132Y-10277154D01*
X15484132Y-10277154D02*
X15484132Y-10258106D01*
X15484132Y-10258106D02*
X15493656Y-10239058D01*
X15493656Y-10239058D02*
X15512703Y-10229535D01*
X15512703Y-10229535D02*
X15560322Y-10229535D01*
X15560322Y-10229535D02*
X15579370Y-10220011D01*
X15674608Y-10172392D02*
X15674608Y-10372392D01*
X15674608Y-10181916D02*
X15693656Y-10172392D01*
X15693656Y-10172392D02*
X15731751Y-10172392D01*
X15731751Y-10172392D02*
X15750799Y-10181916D01*
X15750799Y-10181916D02*
X15760322Y-10191439D01*
X15760322Y-10191439D02*
X15769846Y-10210487D01*
X15769846Y-10210487D02*
X15769846Y-10267630D01*
X15769846Y-10267630D02*
X15760322Y-10286677D01*
X15760322Y-10286677D02*
X15750799Y-10296201D01*
X15750799Y-10296201D02*
X15731751Y-10305725D01*
X15731751Y-10305725D02*
X15693656Y-10305725D01*
X15693656Y-10305725D02*
X15674608Y-10296201D01*
X15855560Y-10286677D02*
X15865084Y-10296201D01*
X15865084Y-10296201D02*
X15855560Y-10305725D01*
X15855560Y-10305725D02*
X15846037Y-10296201D01*
X15846037Y-10296201D02*
X15855560Y-10286677D01*
X15855560Y-10286677D02*
X15855560Y-10305725D01*
X15855560Y-10181916D02*
X15865084Y-10191439D01*
X15865084Y-10191439D02*
X15855560Y-10200963D01*
X15855560Y-10200963D02*
X15846037Y-10191439D01*
X15846037Y-10191439D02*
X15855560Y-10181916D01*
X15855560Y-10181916D02*
X15855560Y-10200963D01*
D12*
X14158355Y-10601741D02*
X14223355Y-10666741D01*
X14223355Y-10601741D02*
X14158355Y-10666741D01*
D11*
X14522227Y-10525725D02*
X14541275Y-10525725D01*
X14541275Y-10525725D02*
X14560322Y-10535249D01*
X14560322Y-10535249D02*
X14569846Y-10544773D01*
X14569846Y-10544773D02*
X14579370Y-10563820D01*
X14579370Y-10563820D02*
X14588894Y-10601916D01*
X14588894Y-10601916D02*
X14588894Y-10649535D01*
X14588894Y-10649535D02*
X14579370Y-10687630D01*
X14579370Y-10687630D02*
X14569846Y-10706677D01*
X14569846Y-10706677D02*
X14560322Y-10716201D01*
X14560322Y-10716201D02*
X14541275Y-10725725D01*
X14541275Y-10725725D02*
X14522227Y-10725725D01*
X14522227Y-10725725D02*
X14503179Y-10716201D01*
X14503179Y-10716201D02*
X14493656Y-10706677D01*
X14493656Y-10706677D02*
X14484132Y-10687630D01*
X14484132Y-10687630D02*
X14474608Y-10649535D01*
X14474608Y-10649535D02*
X14474608Y-10601916D01*
X14474608Y-10601916D02*
X14484132Y-10563820D01*
X14484132Y-10563820D02*
X14493656Y-10544773D01*
X14493656Y-10544773D02*
X14503179Y-10535249D01*
X14503179Y-10535249D02*
X14522227Y-10525725D01*
X14674608Y-10706677D02*
X14684132Y-10716201D01*
X14684132Y-10716201D02*
X14674608Y-10725725D01*
X14674608Y-10725725D02*
X14665084Y-10716201D01*
X14665084Y-10716201D02*
X14674608Y-10706677D01*
X14674608Y-10706677D02*
X14674608Y-10725725D01*
X14855560Y-10525725D02*
X14817465Y-10525725D01*
X14817465Y-10525725D02*
X14798418Y-10535249D01*
X14798418Y-10535249D02*
X14788894Y-10544773D01*
X14788894Y-10544773D02*
X14769846Y-10573344D01*
X14769846Y-10573344D02*
X14760322Y-10611439D01*
X14760322Y-10611439D02*
X14760322Y-10687630D01*
X14760322Y-10687630D02*
X14769846Y-10706677D01*
X14769846Y-10706677D02*
X14779370Y-10716201D01*
X14779370Y-10716201D02*
X14798418Y-10725725D01*
X14798418Y-10725725D02*
X14836513Y-10725725D01*
X14836513Y-10725725D02*
X14855560Y-10716201D01*
X14855560Y-10716201D02*
X14865084Y-10706677D01*
X14865084Y-10706677D02*
X14874608Y-10687630D01*
X14874608Y-10687630D02*
X14874608Y-10640011D01*
X14874608Y-10640011D02*
X14865084Y-10620963D01*
X14865084Y-10620963D02*
X14855560Y-10611439D01*
X14855560Y-10611439D02*
X14836513Y-10601916D01*
X14836513Y-10601916D02*
X14798418Y-10601916D01*
X14798418Y-10601916D02*
X14779370Y-10611439D01*
X14779370Y-10611439D02*
X14769846Y-10620963D01*
X14769846Y-10620963D02*
X14760322Y-10640011D01*
X15055560Y-10525725D02*
X14960322Y-10525725D01*
X14960322Y-10525725D02*
X14950799Y-10620963D01*
X14950799Y-10620963D02*
X14960322Y-10611439D01*
X14960322Y-10611439D02*
X14979370Y-10601916D01*
X14979370Y-10601916D02*
X15026989Y-10601916D01*
X15026989Y-10601916D02*
X15046037Y-10611439D01*
X15046037Y-10611439D02*
X15055560Y-10620963D01*
X15055560Y-10620963D02*
X15065084Y-10640011D01*
X15065084Y-10640011D02*
X15065084Y-10687630D01*
X15065084Y-10687630D02*
X15055560Y-10706677D01*
X15055560Y-10706677D02*
X15046037Y-10716201D01*
X15046037Y-10716201D02*
X15026989Y-10725725D01*
X15026989Y-10725725D02*
X14979370Y-10725725D01*
X14979370Y-10725725D02*
X14960322Y-10716201D01*
X14960322Y-10716201D02*
X14950799Y-10706677D01*
X15188894Y-10525725D02*
X15207941Y-10525725D01*
X15207941Y-10525725D02*
X15226989Y-10535249D01*
X15226989Y-10535249D02*
X15236513Y-10544773D01*
X15236513Y-10544773D02*
X15246037Y-10563820D01*
X15246037Y-10563820D02*
X15255560Y-10601916D01*
X15255560Y-10601916D02*
X15255560Y-10649535D01*
X15255560Y-10649535D02*
X15246037Y-10687630D01*
X15246037Y-10687630D02*
X15236513Y-10706677D01*
X15236513Y-10706677D02*
X15226989Y-10716201D01*
X15226989Y-10716201D02*
X15207941Y-10725725D01*
X15207941Y-10725725D02*
X15188894Y-10725725D01*
X15188894Y-10725725D02*
X15169846Y-10716201D01*
X15169846Y-10716201D02*
X15160322Y-10706677D01*
X15160322Y-10706677D02*
X15150799Y-10687630D01*
X15150799Y-10687630D02*
X15141275Y-10649535D01*
X15141275Y-10649535D02*
X15141275Y-10601916D01*
X15141275Y-10601916D02*
X15150799Y-10563820D01*
X15150799Y-10563820D02*
X15160322Y-10544773D01*
X15160322Y-10544773D02*
X15169846Y-10535249D01*
X15169846Y-10535249D02*
X15188894Y-10525725D01*
X15341275Y-10725725D02*
X15341275Y-10592392D01*
X15341275Y-10611439D02*
X15350799Y-10601916D01*
X15350799Y-10601916D02*
X15369846Y-10592392D01*
X15369846Y-10592392D02*
X15398418Y-10592392D01*
X15398418Y-10592392D02*
X15417465Y-10601916D01*
X15417465Y-10601916D02*
X15426989Y-10620963D01*
X15426989Y-10620963D02*
X15426989Y-10725725D01*
X15426989Y-10620963D02*
X15436513Y-10601916D01*
X15436513Y-10601916D02*
X15455560Y-10592392D01*
X15455560Y-10592392D02*
X15484132Y-10592392D01*
X15484132Y-10592392D02*
X15503180Y-10601916D01*
X15503180Y-10601916D02*
X15512703Y-10620963D01*
X15512703Y-10620963D02*
X15512703Y-10725725D01*
X15607941Y-10725725D02*
X15607941Y-10592392D01*
X15607941Y-10611439D02*
X15617465Y-10601916D01*
X15617465Y-10601916D02*
X15636513Y-10592392D01*
X15636513Y-10592392D02*
X15665084Y-10592392D01*
X15665084Y-10592392D02*
X15684132Y-10601916D01*
X15684132Y-10601916D02*
X15693656Y-10620963D01*
X15693656Y-10620963D02*
X15693656Y-10725725D01*
X15693656Y-10620963D02*
X15703180Y-10601916D01*
X15703180Y-10601916D02*
X15722227Y-10592392D01*
X15722227Y-10592392D02*
X15750799Y-10592392D01*
X15750799Y-10592392D02*
X15769846Y-10601916D01*
X15769846Y-10601916D02*
X15779370Y-10620963D01*
X15779370Y-10620963D02*
X15779370Y-10725725D01*
X16169846Y-10516201D02*
X15998418Y-10773344D01*
X16426989Y-10525725D02*
X16446037Y-10525725D01*
X16446037Y-10525725D02*
X16465084Y-10535249D01*
X16465084Y-10535249D02*
X16474608Y-10544773D01*
X16474608Y-10544773D02*
X16484132Y-10563820D01*
X16484132Y-10563820D02*
X16493656Y-10601916D01*
X16493656Y-10601916D02*
X16493656Y-10649535D01*
X16493656Y-10649535D02*
X16484132Y-10687630D01*
X16484132Y-10687630D02*
X16474608Y-10706677D01*
X16474608Y-10706677D02*
X16465084Y-10716201D01*
X16465084Y-10716201D02*
X16446037Y-10725725D01*
X16446037Y-10725725D02*
X16426989Y-10725725D01*
X16426989Y-10725725D02*
X16407942Y-10716201D01*
X16407942Y-10716201D02*
X16398418Y-10706677D01*
X16398418Y-10706677D02*
X16388894Y-10687630D01*
X16388894Y-10687630D02*
X16379370Y-10649535D01*
X16379370Y-10649535D02*
X16379370Y-10601916D01*
X16379370Y-10601916D02*
X16388894Y-10563820D01*
X16388894Y-10563820D02*
X16398418Y-10544773D01*
X16398418Y-10544773D02*
X16407942Y-10535249D01*
X16407942Y-10535249D02*
X16426989Y-10525725D01*
X16579370Y-10706677D02*
X16588894Y-10716201D01*
X16588894Y-10716201D02*
X16579370Y-10725725D01*
X16579370Y-10725725D02*
X16569846Y-10716201D01*
X16569846Y-10716201D02*
X16579370Y-10706677D01*
X16579370Y-10706677D02*
X16579370Y-10725725D01*
X16712703Y-10525725D02*
X16731751Y-10525725D01*
X16731751Y-10525725D02*
X16750799Y-10535249D01*
X16750799Y-10535249D02*
X16760323Y-10544773D01*
X16760323Y-10544773D02*
X16769846Y-10563820D01*
X16769846Y-10563820D02*
X16779370Y-10601916D01*
X16779370Y-10601916D02*
X16779370Y-10649535D01*
X16779370Y-10649535D02*
X16769846Y-10687630D01*
X16769846Y-10687630D02*
X16760323Y-10706677D01*
X16760323Y-10706677D02*
X16750799Y-10716201D01*
X16750799Y-10716201D02*
X16731751Y-10725725D01*
X16731751Y-10725725D02*
X16712703Y-10725725D01*
X16712703Y-10725725D02*
X16693656Y-10716201D01*
X16693656Y-10716201D02*
X16684132Y-10706677D01*
X16684132Y-10706677D02*
X16674608Y-10687630D01*
X16674608Y-10687630D02*
X16665084Y-10649535D01*
X16665084Y-10649535D02*
X16665084Y-10601916D01*
X16665084Y-10601916D02*
X16674608Y-10563820D01*
X16674608Y-10563820D02*
X16684132Y-10544773D01*
X16684132Y-10544773D02*
X16693656Y-10535249D01*
X16693656Y-10535249D02*
X16712703Y-10525725D01*
X16855561Y-10544773D02*
X16865085Y-10535249D01*
X16865085Y-10535249D02*
X16884132Y-10525725D01*
X16884132Y-10525725D02*
X16931751Y-10525725D01*
X16931751Y-10525725D02*
X16950799Y-10535249D01*
X16950799Y-10535249D02*
X16960323Y-10544773D01*
X16960323Y-10544773D02*
X16969846Y-10563820D01*
X16969846Y-10563820D02*
X16969846Y-10582868D01*
X16969846Y-10582868D02*
X16960323Y-10611439D01*
X16960323Y-10611439D02*
X16846037Y-10725725D01*
X16846037Y-10725725D02*
X16969846Y-10725725D01*
X17150799Y-10525725D02*
X17055561Y-10525725D01*
X17055561Y-10525725D02*
X17046037Y-10620963D01*
X17046037Y-10620963D02*
X17055561Y-10611439D01*
X17055561Y-10611439D02*
X17074608Y-10601916D01*
X17074608Y-10601916D02*
X17122227Y-10601916D01*
X17122227Y-10601916D02*
X17141275Y-10611439D01*
X17141275Y-10611439D02*
X17150799Y-10620963D01*
X17150799Y-10620963D02*
X17160323Y-10640011D01*
X17160323Y-10640011D02*
X17160323Y-10687630D01*
X17160323Y-10687630D02*
X17150799Y-10706677D01*
X17150799Y-10706677D02*
X17141275Y-10716201D01*
X17141275Y-10716201D02*
X17122227Y-10725725D01*
X17122227Y-10725725D02*
X17074608Y-10725725D01*
X17074608Y-10725725D02*
X17055561Y-10716201D01*
X17055561Y-10716201D02*
X17046037Y-10706677D01*
X17331751Y-10525725D02*
X17293656Y-10525725D01*
X17293656Y-10525725D02*
X17274608Y-10535249D01*
X17274608Y-10535249D02*
X17265085Y-10544773D01*
X17265085Y-10544773D02*
X17246037Y-10573344D01*
X17246037Y-10573344D02*
X17236513Y-10611439D01*
X17236513Y-10611439D02*
X17236513Y-10687630D01*
X17236513Y-10687630D02*
X17246037Y-10706677D01*
X17246037Y-10706677D02*
X17255561Y-10716201D01*
X17255561Y-10716201D02*
X17274608Y-10725725D01*
X17274608Y-10725725D02*
X17312704Y-10725725D01*
X17312704Y-10725725D02*
X17331751Y-10716201D01*
X17331751Y-10716201D02*
X17341275Y-10706677D01*
X17341275Y-10706677D02*
X17350799Y-10687630D01*
X17350799Y-10687630D02*
X17350799Y-10640011D01*
X17350799Y-10640011D02*
X17341275Y-10620963D01*
X17341275Y-10620963D02*
X17331751Y-10611439D01*
X17331751Y-10611439D02*
X17312704Y-10601916D01*
X17312704Y-10601916D02*
X17274608Y-10601916D01*
X17274608Y-10601916D02*
X17255561Y-10611439D01*
X17255561Y-10611439D02*
X17246037Y-10620963D01*
X17246037Y-10620963D02*
X17236513Y-10640011D01*
X17426989Y-10525725D02*
X17426989Y-10563820D01*
X17503180Y-10525725D02*
X17503180Y-10563820D01*
X17798418Y-10801916D02*
X17788894Y-10792392D01*
X17788894Y-10792392D02*
X17769847Y-10763820D01*
X17769847Y-10763820D02*
X17760323Y-10744773D01*
X17760323Y-10744773D02*
X17750799Y-10716201D01*
X17750799Y-10716201D02*
X17741275Y-10668582D01*
X17741275Y-10668582D02*
X17741275Y-10630487D01*
X17741275Y-10630487D02*
X17750799Y-10582868D01*
X17750799Y-10582868D02*
X17760323Y-10554297D01*
X17760323Y-10554297D02*
X17769847Y-10535249D01*
X17769847Y-10535249D02*
X17788894Y-10506677D01*
X17788894Y-10506677D02*
X17798418Y-10497154D01*
X17865085Y-10544773D02*
X17874608Y-10535249D01*
X17874608Y-10535249D02*
X17893656Y-10525725D01*
X17893656Y-10525725D02*
X17941275Y-10525725D01*
X17941275Y-10525725D02*
X17960323Y-10535249D01*
X17960323Y-10535249D02*
X17969847Y-10544773D01*
X17969847Y-10544773D02*
X17979370Y-10563820D01*
X17979370Y-10563820D02*
X17979370Y-10582868D01*
X17979370Y-10582868D02*
X17969847Y-10611439D01*
X17969847Y-10611439D02*
X17855561Y-10725725D01*
X17855561Y-10725725D02*
X17979370Y-10725725D01*
X18217466Y-10725725D02*
X18217466Y-10525725D01*
X18303180Y-10725725D02*
X18303180Y-10620963D01*
X18303180Y-10620963D02*
X18293656Y-10601916D01*
X18293656Y-10601916D02*
X18274609Y-10592392D01*
X18274609Y-10592392D02*
X18246037Y-10592392D01*
X18246037Y-10592392D02*
X18226989Y-10601916D01*
X18226989Y-10601916D02*
X18217466Y-10611439D01*
X18426989Y-10725725D02*
X18407942Y-10716201D01*
X18407942Y-10716201D02*
X18398418Y-10706677D01*
X18398418Y-10706677D02*
X18388894Y-10687630D01*
X18388894Y-10687630D02*
X18388894Y-10630487D01*
X18388894Y-10630487D02*
X18398418Y-10611439D01*
X18398418Y-10611439D02*
X18407942Y-10601916D01*
X18407942Y-10601916D02*
X18426989Y-10592392D01*
X18426989Y-10592392D02*
X18455561Y-10592392D01*
X18455561Y-10592392D02*
X18474609Y-10601916D01*
X18474609Y-10601916D02*
X18484132Y-10611439D01*
X18484132Y-10611439D02*
X18493656Y-10630487D01*
X18493656Y-10630487D02*
X18493656Y-10687630D01*
X18493656Y-10687630D02*
X18484132Y-10706677D01*
X18484132Y-10706677D02*
X18474609Y-10716201D01*
X18474609Y-10716201D02*
X18455561Y-10725725D01*
X18455561Y-10725725D02*
X18426989Y-10725725D01*
X18607942Y-10725725D02*
X18588894Y-10716201D01*
X18588894Y-10716201D02*
X18579370Y-10697154D01*
X18579370Y-10697154D02*
X18579370Y-10525725D01*
X18760323Y-10716201D02*
X18741275Y-10725725D01*
X18741275Y-10725725D02*
X18703180Y-10725725D01*
X18703180Y-10725725D02*
X18684132Y-10716201D01*
X18684132Y-10716201D02*
X18674609Y-10697154D01*
X18674609Y-10697154D02*
X18674609Y-10620963D01*
X18674609Y-10620963D02*
X18684132Y-10601916D01*
X18684132Y-10601916D02*
X18703180Y-10592392D01*
X18703180Y-10592392D02*
X18741275Y-10592392D01*
X18741275Y-10592392D02*
X18760323Y-10601916D01*
X18760323Y-10601916D02*
X18769847Y-10620963D01*
X18769847Y-10620963D02*
X18769847Y-10640011D01*
X18769847Y-10640011D02*
X18674609Y-10659058D01*
X18846037Y-10716201D02*
X18865085Y-10725725D01*
X18865085Y-10725725D02*
X18903180Y-10725725D01*
X18903180Y-10725725D02*
X18922228Y-10716201D01*
X18922228Y-10716201D02*
X18931751Y-10697154D01*
X18931751Y-10697154D02*
X18931751Y-10687630D01*
X18931751Y-10687630D02*
X18922228Y-10668582D01*
X18922228Y-10668582D02*
X18903180Y-10659058D01*
X18903180Y-10659058D02*
X18874609Y-10659058D01*
X18874609Y-10659058D02*
X18855561Y-10649535D01*
X18855561Y-10649535D02*
X18846037Y-10630487D01*
X18846037Y-10630487D02*
X18846037Y-10620963D01*
X18846037Y-10620963D02*
X18855561Y-10601916D01*
X18855561Y-10601916D02*
X18874609Y-10592392D01*
X18874609Y-10592392D02*
X18903180Y-10592392D01*
X18903180Y-10592392D02*
X18922228Y-10601916D01*
X18998418Y-10801916D02*
X19007942Y-10792392D01*
X19007942Y-10792392D02*
X19026990Y-10763820D01*
X19026990Y-10763820D02*
X19036513Y-10744773D01*
X19036513Y-10744773D02*
X19046037Y-10716201D01*
X19046037Y-10716201D02*
X19055561Y-10668582D01*
X19055561Y-10668582D02*
X19055561Y-10630487D01*
X19055561Y-10630487D02*
X19046037Y-10582868D01*
X19046037Y-10582868D02*
X19036513Y-10554297D01*
X19036513Y-10554297D02*
X19026990Y-10535249D01*
X19026990Y-10535249D02*
X19007942Y-10506677D01*
X19007942Y-10506677D02*
X18998418Y-10497154D01*
X19360323Y-10801916D02*
X19350799Y-10792392D01*
X19350799Y-10792392D02*
X19331751Y-10763820D01*
X19331751Y-10763820D02*
X19322228Y-10744773D01*
X19322228Y-10744773D02*
X19312704Y-10716201D01*
X19312704Y-10716201D02*
X19303180Y-10668582D01*
X19303180Y-10668582D02*
X19303180Y-10630487D01*
X19303180Y-10630487D02*
X19312704Y-10582868D01*
X19312704Y-10582868D02*
X19322228Y-10554297D01*
X19322228Y-10554297D02*
X19331751Y-10535249D01*
X19331751Y-10535249D02*
X19350799Y-10506677D01*
X19350799Y-10506677D02*
X19360323Y-10497154D01*
X19436513Y-10592392D02*
X19436513Y-10725725D01*
X19436513Y-10611439D02*
X19446037Y-10601916D01*
X19446037Y-10601916D02*
X19465085Y-10592392D01*
X19465085Y-10592392D02*
X19493656Y-10592392D01*
X19493656Y-10592392D02*
X19512704Y-10601916D01*
X19512704Y-10601916D02*
X19522228Y-10620963D01*
X19522228Y-10620963D02*
X19522228Y-10725725D01*
X19646037Y-10725725D02*
X19626990Y-10716201D01*
X19626990Y-10716201D02*
X19617466Y-10706677D01*
X19617466Y-10706677D02*
X19607942Y-10687630D01*
X19607942Y-10687630D02*
X19607942Y-10630487D01*
X19607942Y-10630487D02*
X19617466Y-10611439D01*
X19617466Y-10611439D02*
X19626990Y-10601916D01*
X19626990Y-10601916D02*
X19646037Y-10592392D01*
X19646037Y-10592392D02*
X19674609Y-10592392D01*
X19674609Y-10592392D02*
X19693656Y-10601916D01*
X19693656Y-10601916D02*
X19703180Y-10611439D01*
X19703180Y-10611439D02*
X19712704Y-10630487D01*
X19712704Y-10630487D02*
X19712704Y-10687630D01*
X19712704Y-10687630D02*
X19703180Y-10706677D01*
X19703180Y-10706677D02*
X19693656Y-10716201D01*
X19693656Y-10716201D02*
X19674609Y-10725725D01*
X19674609Y-10725725D02*
X19646037Y-10725725D01*
X19769847Y-10592392D02*
X19846037Y-10592392D01*
X19798418Y-10525725D02*
X19798418Y-10697154D01*
X19798418Y-10697154D02*
X19807942Y-10716201D01*
X19807942Y-10716201D02*
X19826990Y-10725725D01*
X19826990Y-10725725D02*
X19846037Y-10725725D01*
X20065085Y-10592392D02*
X20065085Y-10792392D01*
X20065085Y-10601916D02*
X20084132Y-10592392D01*
X20084132Y-10592392D02*
X20122228Y-10592392D01*
X20122228Y-10592392D02*
X20141275Y-10601916D01*
X20141275Y-10601916D02*
X20150799Y-10611439D01*
X20150799Y-10611439D02*
X20160323Y-10630487D01*
X20160323Y-10630487D02*
X20160323Y-10687630D01*
X20160323Y-10687630D02*
X20150799Y-10706677D01*
X20150799Y-10706677D02*
X20141275Y-10716201D01*
X20141275Y-10716201D02*
X20122228Y-10725725D01*
X20122228Y-10725725D02*
X20084132Y-10725725D01*
X20084132Y-10725725D02*
X20065085Y-10716201D01*
X20274609Y-10725725D02*
X20255561Y-10716201D01*
X20255561Y-10716201D02*
X20246037Y-10697154D01*
X20246037Y-10697154D02*
X20246037Y-10525725D01*
X20436513Y-10725725D02*
X20436513Y-10620963D01*
X20436513Y-10620963D02*
X20426990Y-10601916D01*
X20426990Y-10601916D02*
X20407942Y-10592392D01*
X20407942Y-10592392D02*
X20369847Y-10592392D01*
X20369847Y-10592392D02*
X20350799Y-10601916D01*
X20436513Y-10716201D02*
X20417466Y-10725725D01*
X20417466Y-10725725D02*
X20369847Y-10725725D01*
X20369847Y-10725725D02*
X20350799Y-10716201D01*
X20350799Y-10716201D02*
X20341275Y-10697154D01*
X20341275Y-10697154D02*
X20341275Y-10678106D01*
X20341275Y-10678106D02*
X20350799Y-10659058D01*
X20350799Y-10659058D02*
X20369847Y-10649535D01*
X20369847Y-10649535D02*
X20417466Y-10649535D01*
X20417466Y-10649535D02*
X20436513Y-10640011D01*
X20503180Y-10592392D02*
X20579371Y-10592392D01*
X20531752Y-10525725D02*
X20531752Y-10697154D01*
X20531752Y-10697154D02*
X20541275Y-10716201D01*
X20541275Y-10716201D02*
X20560323Y-10725725D01*
X20560323Y-10725725D02*
X20579371Y-10725725D01*
X20722228Y-10716201D02*
X20703180Y-10725725D01*
X20703180Y-10725725D02*
X20665085Y-10725725D01*
X20665085Y-10725725D02*
X20646037Y-10716201D01*
X20646037Y-10716201D02*
X20636513Y-10697154D01*
X20636513Y-10697154D02*
X20636513Y-10620963D01*
X20636513Y-10620963D02*
X20646037Y-10601916D01*
X20646037Y-10601916D02*
X20665085Y-10592392D01*
X20665085Y-10592392D02*
X20703180Y-10592392D01*
X20703180Y-10592392D02*
X20722228Y-10601916D01*
X20722228Y-10601916D02*
X20731752Y-10620963D01*
X20731752Y-10620963D02*
X20731752Y-10640011D01*
X20731752Y-10640011D02*
X20636513Y-10659058D01*
X20903180Y-10725725D02*
X20903180Y-10525725D01*
X20903180Y-10716201D02*
X20884133Y-10725725D01*
X20884133Y-10725725D02*
X20846037Y-10725725D01*
X20846037Y-10725725D02*
X20826990Y-10716201D01*
X20826990Y-10716201D02*
X20817466Y-10706677D01*
X20817466Y-10706677D02*
X20807942Y-10687630D01*
X20807942Y-10687630D02*
X20807942Y-10630487D01*
X20807942Y-10630487D02*
X20817466Y-10611439D01*
X20817466Y-10611439D02*
X20826990Y-10601916D01*
X20826990Y-10601916D02*
X20846037Y-10592392D01*
X20846037Y-10592392D02*
X20884133Y-10592392D01*
X20884133Y-10592392D02*
X20903180Y-10601916D01*
X20979371Y-10801916D02*
X20988894Y-10792392D01*
X20988894Y-10792392D02*
X21007942Y-10763820D01*
X21007942Y-10763820D02*
X21017466Y-10744773D01*
X21017466Y-10744773D02*
X21026990Y-10716201D01*
X21026990Y-10716201D02*
X21036513Y-10668582D01*
X21036513Y-10668582D02*
X21036513Y-10630487D01*
X21036513Y-10630487D02*
X21026990Y-10582868D01*
X21026990Y-10582868D02*
X21017466Y-10554297D01*
X21017466Y-10554297D02*
X21007942Y-10535249D01*
X21007942Y-10535249D02*
X20988894Y-10506677D01*
X20988894Y-10506677D02*
X20979371Y-10497154D01*
M02*
